<?xml version="1.0" standalone="no"?>
<!DOCTYPE svg PUBLIC "-//W3C//DTD SVG 20010904//EN"
 "http://www.w3.org/TR/2001/REC-SVG-20010904/DTD/svg10.dtd">
<svg version="1.0" xmlns="http://www.w3.org/2000/svg"
 width="4896.000000pt" height="4896.000000pt" viewBox="0 0 4896.000000 4896.000000"
 preserveAspectRatio="xMidYMid meet">

<g transform="translate(0.000000,4896.000000) scale(0.100000,-0.100000)"
fill="#000000" stroke="none">
<path d="M19290 36116 c0 -14 -10 -33 -22 -43 -32 -26 -87 -98 -103 -136 -20
-43 -80 -107 -137 -146 -27 -18 -48 -36 -48 -41 0 -5 -16 -26 -36 -47 -76 -80
-84 -90 -96 -124 -6 -19 -22 -45 -36 -59 -41 -42 -130 -132 -201 -200 -36 -36
-73 -81 -81 -100 -13 -33 -33 -61 -102 -140 -76 -88 -120 -130 -140 -136 -24
-6 -91 -85 -107 -125 -8 -21 -74 -109 -124 -164 -77 -87 -117 -124 -145 -139
-21 -11 -39 -31 -49 -54 -14 -34 -34 -61 -96 -132 -12 -14 -32 -38 -44 -53
-22 -29 -96 -114 -193 -222 -154 -171 -287 -329 -301 -361 -9 -20 -29 -44 -45
-54 -34 -20 -55 -42 -104 -100 -19 -23 -51 -59 -70 -79 -79 -85 -98 -111 -105
-140 -3 -16 -17 -36 -30 -45 -13 -9 -26 -24 -29 -34 -4 -11 -24 -27 -46 -37
-22 -10 -46 -28 -55 -41 -8 -13 -44 -56 -79 -96 -34 -40 -71 -89 -81 -108 -30
-59 -133 -180 -154 -180 -26 0 -151 -140 -186 -210 -34 -67 -159 -206 -207
-231 -36 -19 -114 -111 -122 -145 -4 -15 -19 -40 -34 -55 -34 -35 -75 -82
-132 -152 -25 -31 -57 -61 -73 -68 -32 -13 -72 -59 -83 -91 -7 -23 -21 -41
-117 -152 -29 -33 -72 -83 -97 -112 -25 -28 -55 -57 -68 -65 -12 -7 -38 -36
-57 -64 -19 -29 -50 -71 -70 -94 -19 -24 -35 -49 -35 -56 0 -7 -9 -15 -20 -18
-13 -3 -20 -14 -20 -30 0 -24 3 -25 83 -32 45 -3 1011 -5 2147 -3 1962 3 2067
4 2101 21 38 19 166 162 195 218 30 61 123 167 164 189 39 21 131 127 174 200
49 84 171 222 209 238 33 14 100 93 117 138 10 25 92 128 180 226 24 28 61 58
81 69 26 13 41 30 53 60 16 40 198 261 285 347 21 20 57 63 81 95 23 31 45 57
49 57 4 0 14 12 23 28 15 23 47 61 153 174 13 14 31 44 40 65 10 26 27 45 51
58 20 10 46 33 60 50 67 85 121 148 168 195 14 14 31 41 37 60 15 42 74 111
109 126 14 6 53 44 88 85 35 41 76 89 92 106 17 18 30 37 30 43 0 15 74 121
98 141 11 10 24 23 28 31 5 8 24 21 42 29 39 19 131 124 168 194 15 28 43 68
62 90 95 111 128 145 152 155 34 14 103 96 118 139 7 19 23 46 36 60 28 30 62
69 131 150 28 32 69 70 92 84 26 16 49 41 62 69 25 50 79 128 90 128 4 0 30
28 58 63 28 34 72 85 98 112 26 28 80 91 121 140 84 102 114 137 185 215 28
30 60 74 70 97 11 24 32 49 48 57 41 22 91 83 91 111 l0 25 -2170 0 -2170 0 0
-24z"/>
<path d="M25330 36115 c0 -28 50 -89 91 -111 16 -8 36 -32 48 -57 10 -23 44
-69 74 -102 31 -33 67 -73 81 -90 14 -16 39 -46 56 -65 17 -19 44 -52 60 -73
16 -22 58 -70 92 -107 35 -37 81 -89 103 -115 22 -26 55 -63 72 -84 18 -20 41
-45 51 -57 10 -12 24 -36 32 -55 18 -46 28 -57 66 -77 17 -9 68 -60 113 -112
46 -52 93 -107 107 -121 13 -14 29 -41 36 -60 16 -48 85 -125 130 -145 21 -9
38 -20 38 -23 0 -3 25 -33 55 -66 30 -33 64 -77 77 -98 83 -137 155 -225 205
-246 15 -7 48 -37 73 -67 25 -30 50 -61 56 -68 7 -7 22 -32 34 -57 12 -24 33
-55 46 -69 13 -14 47 -54 76 -89 29 -34 67 -70 84 -80 40 -21 97 -86 114 -131
8 -19 40 -62 72 -95 32 -33 58 -63 58 -66 0 -3 12 -19 28 -35 15 -16 36 -42
47 -58 11 -15 39 -39 62 -52 26 -16 43 -35 48 -51 3 -15 21 -44 38 -63 101
-116 142 -164 209 -242 40 -47 142 -165 226 -262 83 -97 152 -182 152 -190 0
-21 46 -72 77 -85 25 -11 67 -56 150 -161 16 -19 39 -45 52 -59 13 -13 30 -40
38 -60 20 -47 100 -140 127 -147 11 -3 40 -26 63 -52 71 -79 133 -155 133
-165 0 -29 136 -193 179 -216 47 -25 130 -120 166 -191 19 -38 134 -174 172
-203 12 -10 48 -22 80 -27 65 -11 4111 -14 4212 -4 59 7 61 8 61 35 0 22 -5
29 -19 29 -11 0 -21 9 -25 23 -3 12 -18 36 -33 52 -15 17 -45 56 -66 87 -21
30 -48 61 -60 68 -12 7 -42 36 -67 64 -25 29 -68 79 -97 112 -93 107 -109 129
-123 162 -7 20 -35 50 -64 71 -47 35 -74 63 -159 164 -18 21 -44 50 -58 65
-14 15 -31 42 -37 60 -15 45 -91 130 -129 144 -17 6 -37 22 -44 35 -7 13 -15
23 -19 23 -9 0 -130 147 -130 157 0 31 -165 223 -191 223 -11 0 -99 86 -99 98
-1 4 -14 23 -30 42 -17 19 -30 40 -30 46 0 7 -32 50 -71 95 -39 45 -77 92 -85
104 -8 12 -32 30 -54 40 -22 10 -42 26 -46 37 -3 10 -16 25 -29 34 -13 9 -27
29 -30 45 -7 29 -26 55 -105 140 -19 20 -51 56 -70 79 -47 57 -69 78 -106 101
-18 11 -35 31 -38 44 -6 23 -198 255 -302 365 -23 25 -77 86 -119 135 -42 50
-92 108 -111 130 -74 86 -92 111 -107 147 -10 23 -28 43 -49 54 -55 28 -268
265 -268 299 0 22 -78 113 -113 131 -29 15 -54 39 -141 139 -56 65 -83 101
-95 131 -12 29 -63 86 -197 216 -91 88 -109 110 -122 148 -7 19 -24 46 -37 60
-60 60 -95 101 -95 110 0 5 -24 25 -53 44 -58 38 -112 100 -138 156 -9 19 -40
60 -68 92 -28 31 -51 66 -51 77 l0 21 -2170 0 -2170 0 0 -25z"/>
<path d="M24453 35901 c-12 -3 -47 -35 -77 -70 -31 -36 -75 -77 -98 -92 -22
-15 -50 -41 -60 -58 -11 -17 -24 -31 -30 -31 -5 0 -19 -21 -30 -47 -20 -47
-57 -98 -108 -153 -14 -14 -41 -45 -60 -68 -19 -24 -51 -51 -70 -61 -45 -24
-63 -44 -99 -112 -40 -73 -237 -302 -281 -325 -21 -12 -43 -35 -55 -60 -17
-34 -61 -95 -110 -150 -5 -7 -37 -44 -70 -83 -33 -39 -63 -71 -67 -71 -4 0
-15 -15 -24 -32 -9 -18 -49 -65 -88 -105 -100 -100 -208 -229 -246 -293 -42
-70 -75 -105 -111 -120 -16 -7 -29 -16 -29 -20 0 -5 -17 -27 -37 -49 -21 -23
-54 -60 -73 -82 -19 -22 -43 -50 -53 -61 -10 -11 -25 -36 -34 -55 -21 -52 -81
-119 -135 -155 -27 -16 -48 -34 -48 -38 0 -7 -41 -55 -100 -116 -11 -11 -27
-38 -36 -60 -9 -21 -23 -47 -33 -56 -9 -9 -38 -44 -66 -76 -27 -33 -65 -67
-83 -77 -41 -23 -118 -112 -138 -162 -9 -21 -26 -48 -38 -60 -11 -13 -33 -38
-49 -55 -71 -85 -133 -148 -143 -148 -22 0 -73 -59 -115 -133 -23 -40 -54 -84
-68 -99 -14 -15 -39 -42 -54 -60 -69 -80 -124 -134 -151 -148 -16 -8 -36 -31
-45 -50 -17 -37 -46 -78 -119 -164 -24 -28 -55 -65 -70 -83 -15 -18 -42 -47
-59 -64 -18 -18 -33 -37 -33 -43 0 -14 -40 -60 -63 -72 -28 -16 -236 -264
-268 -319 -35 -62 -59 -88 -109 -120 -25 -16 -42 -35 -46 -53 -3 -15 -8 -34
-10 -43 -13 -46 -226 -44 4010 -44 3041 0 3987 3 4007 12 l27 12 -16 46 c-12
36 -26 55 -67 85 -32 24 -65 60 -83 92 -35 60 -219 280 -293 349 -27 25 -49
50 -49 56 0 6 -13 24 -29 39 -31 32 -87 96 -141 164 -19 24 -49 60 -66 80 -17
19 -35 49 -41 65 -5 17 -24 39 -42 50 -62 38 -249 248 -275 308 -22 52 -73
115 -108 133 -34 18 -118 98 -118 114 0 5 -10 16 -22 25 -29 20 -72 79 -97
132 -11 22 -46 67 -79 100 -202 196 -227 223 -240 262 -10 30 -159 211 -173
211 -19 0 -135 125 -149 160 -13 35 -70 107 -151 192 -15 15 -29 34 -32 42 -3
8 -24 26 -46 40 -41 26 -91 75 -91 89 0 11 -51 85 -81 118 -13 14 -42 47 -64
73 -22 26 -55 63 -72 82 -18 18 -33 38 -33 43 0 5 -12 17 -27 26 -16 9 -39 33
-53 52 -24 34 -47 61 -115 137 -16 19 -50 60 -75 91 -25 32 -55 68 -67 79 -12
12 -29 40 -38 62 -9 24 -28 47 -48 59 -62 36 -233 228 -272 306 -33 64 -79
116 -126 139 -20 11 -39 24 -41 29 -1 5 -26 35 -55 68 -88 100 -108 127 -127
169 -9 22 -31 53 -47 68 -16 15 -29 31 -29 36 0 4 -25 24 -55 45 -30 20 -55
39 -55 43 -1 4 -23 31 -49 60 -49 53 -73 64 -118 53z"/>
<path d="M15230 30463 c-49 -9 -67 -47 -35 -73 9 -7 25 -35 36 -61 16 -35 30
-52 57 -65 19 -9 83 -66 141 -126 133 -136 150 -157 170 -198 9 -19 32 -44 51
-57 90 -57 259 -233 298 -310 21 -40 96 -113 116 -113 19 0 218 -213 233 -250
17 -41 101 -130 122 -130 21 0 229 -217 246 -256 17 -41 102 -129 135 -139 37
-12 230 -221 230 -250 0 -16 104 -125 119 -125 22 0 175 -157 217 -222 54 -83
128 -164 174 -189 32 -17 85 -64 151 -136 15 -15 34 -44 42 -63 18 -42 156
-185 189 -195 30 -10 144 -129 170 -180 11 -22 32 -51 47 -65 14 -14 45 -46
68 -72 24 -26 57 -55 73 -63 41 -21 154 -137 173 -178 21 -43 182 -214 221
-234 39 -19 104 -88 121 -128 18 -41 203 -240 238 -255 39 -18 115 -94 122
-123 7 -27 234 -267 253 -267 20 0 92 -72 114 -115 11 -22 47 -66 79 -97 33
-32 59 -60 59 -64 0 -10 104 -106 154 -142 25 -18 46 -37 46 -42 0 -33 263
-321 312 -341 18 -7 37 -28 50 -53 18 -37 53 -75 249 -276 30 -32 64 -60 76
-64 11 -4 27 -20 34 -37 11 -29 46 -67 296 -324 154 -159 331 -349 361 -387
16 -21 74 -81 129 -135 139 -136 231 -239 253 -284 11 -21 30 -41 42 -45 13
-4 75 -60 138 -124 155 -159 162 -166 182 -211 12 -28 29 -45 55 -57 57 -26
272 -251 309 -324 13 -25 33 -49 44 -53 52 -16 258 -230 309 -319 23 -41 46
-66 86 -92 31 -19 86 -67 123 -107 37 -39 81 -85 99 -102 17 -16 34 -42 38
-57 15 -58 69 -62 77 -6 7 42 -9 118 -28 139 -8 9 -22 39 -30 65 -8 26 -25 67
-39 90 -14 24 -30 67 -35 96 -6 29 -18 64 -29 78 -10 14 -26 50 -36 80 -10 30
-26 66 -36 80 -10 14 -25 54 -34 90 -13 50 -26 74 -55 105 -22 22 -46 60 -55
85 -8 24 -22 51 -30 60 -8 8 -28 56 -46 105 -17 50 -39 113 -49 142 -10 29
-28 65 -39 80 -11 15 -25 48 -31 73 -7 25 -20 56 -30 70 -10 14 -22 44 -25 65
-13 68 -35 113 -70 139 -19 15 -38 42 -45 63 -7 21 -23 55 -36 76 -14 21 -29
64 -35 95 -6 31 -21 73 -34 92 -13 19 -28 54 -34 76 -6 23 -20 53 -32 68 -11
14 -27 54 -35 88 -9 35 -26 83 -38 108 -13 25 -26 58 -30 73 -4 16 -26 50 -50
75 -25 27 -53 71 -65 102 -11 30 -33 89 -48 130 -15 42 -38 92 -50 111 -13 20
-23 43 -23 51 0 8 -12 37 -26 64 -14 27 -32 76 -40 108 -8 33 -23 73 -34 90
-10 17 -28 57 -40 89 -12 32 -28 61 -34 63 -24 9 -57 65 -72 121 -8 30 -23 68
-35 84 -11 15 -26 49 -34 74 -7 26 -21 55 -30 65 -9 9 -25 50 -36 90 -12 40
-29 87 -40 104 -10 17 -19 38 -19 47 0 10 -13 42 -29 72 -16 30 -36 77 -45
105 -10 29 -21 54 -26 57 -17 11 -70 96 -76 123 -4 15 -19 47 -34 72 -16 25
-33 64 -39 86 -6 23 -20 52 -30 66 -11 13 -24 50 -30 83 -6 32 -22 75 -35 95
-14 19 -29 54 -35 76 -6 23 -20 53 -31 67 -11 14 -27 56 -36 93 -12 55 -23 77
-54 109 -22 22 -46 59 -54 83 -9 24 -25 56 -36 73 -12 16 -30 61 -41 100 -11
39 -26 80 -33 92 -8 12 -19 39 -26 61 -7 21 -23 54 -36 74 -13 19 -24 42 -24
51 0 10 -11 39 -24 67 -13 27 -33 81 -45 119 -16 54 -29 78 -59 106 -24 22
-46 56 -56 85 -9 26 -23 55 -32 65 -8 9 -22 47 -29 83 -8 37 -23 78 -35 93
-11 14 -25 44 -31 67 -6 22 -21 57 -34 76 -13 19 -29 62 -36 95 -7 33 -20 71
-29 85 -10 14 -25 48 -34 76 -10 31 -31 65 -56 89 -28 28 -46 58 -61 104 -12
36 -27 75 -34 87 -7 11 -19 40 -25 64 -6 23 -22 59 -35 79 -13 20 -28 55 -34
77 -6 23 -19 52 -29 65 -10 13 -24 51 -30 84 -7 33 -21 73 -33 88 -11 15 -27
51 -35 79 -10 31 -31 68 -58 97 -31 34 -45 60 -55 101 -6 30 -20 64 -30 75
-10 11 -27 45 -36 75 -10 30 -26 66 -36 80 -10 14 -25 52 -34 85 -8 33 -26 82
-40 109 -14 27 -25 57 -25 65 0 9 -10 32 -22 51 -11 19 -31 60 -43 90 -12 30
-35 75 -51 99 -16 24 -38 60 -50 80 -13 23 -32 40 -55 48 -26 9 -513 12 -2054
11 -1111 0 -2031 -3 -2045 -5z"/>
<path d="M20250 30457 c-14 -7 -27 -23 -28 -36 -5 -29 17 -111 34 -131 6 -8
17 -33 23 -55 6 -22 20 -56 32 -75 12 -19 30 -59 40 -89 11 -30 25 -62 33 -70
7 -9 19 -44 26 -79 7 -35 21 -74 32 -87 10 -13 26 -47 34 -76 10 -33 31 -68
59 -98 30 -32 45 -59 50 -86 4 -22 20 -62 35 -90 15 -27 33 -67 40 -89 7 -21
22 -54 35 -72 12 -18 27 -59 34 -91 6 -32 18 -69 27 -81 8 -12 24 -47 35 -79
10 -31 25 -64 33 -72 7 -9 21 -39 30 -67 9 -28 32 -75 51 -105 19 -30 46 -79
61 -109 14 -30 32 -62 39 -70 7 -8 18 -35 25 -60 6 -25 20 -57 30 -71 11 -15
26 -58 35 -95 9 -38 24 -78 34 -89 11 -11 25 -40 31 -65 7 -25 23 -63 36 -86
13 -22 29 -67 36 -99 9 -47 19 -66 53 -100 24 -23 48 -59 55 -81 7 -21 22 -52
34 -69 12 -16 30 -61 40 -100 10 -38 24 -77 31 -85 7 -8 18 -33 24 -55 6 -22
20 -56 32 -75 22 -35 36 -71 90 -230 22 -64 39 -95 72 -130 26 -26 49 -62 55
-86 7 -22 21 -49 32 -59 11 -10 20 -24 20 -31 0 -38 24 -118 45 -148 13 -20
27 -51 30 -70 4 -19 18 -49 31 -67 13 -17 31 -65 40 -105 8 -40 22 -78 29 -84
8 -6 24 -41 35 -76 17 -49 31 -72 60 -95 30 -24 41 -42 50 -83 7 -28 22 -69
35 -91 12 -22 26 -54 30 -72 3 -18 17 -48 30 -67 13 -20 29 -55 35 -78 7 -24
18 -54 27 -67 8 -13 24 -55 35 -95 11 -39 26 -78 34 -87 7 -8 23 -42 34 -75
13 -36 35 -74 59 -99 28 -28 42 -55 51 -93 7 -29 23 -68 36 -87 13 -20 29 -55
35 -80 6 -24 20 -53 30 -64 11 -11 26 -51 35 -88 8 -37 23 -80 34 -94 10 -14
25 -50 34 -79 9 -29 22 -60 29 -69 8 -9 26 -52 42 -95 16 -44 43 -96 60 -115
17 -20 39 -57 49 -83 9 -25 23 -52 31 -58 8 -6 21 -37 30 -68 9 -32 23 -64 30
-72 7 -8 20 -44 29 -80 9 -36 25 -76 35 -90 10 -14 26 -49 35 -78 10 -29 28
-72 41 -95 12 -23 26 -60 30 -82 9 -54 29 -90 65 -115 19 -14 33 -36 41 -63 6
-23 21 -55 33 -72 13 -16 30 -61 40 -99 9 -38 26 -80 37 -94 10 -14 19 -32 19
-41 0 -9 15 -47 34 -86 19 -38 54 -124 78 -190 33 -94 52 -130 84 -165 23 -25
47 -63 54 -85 7 -22 21 -50 31 -63 9 -12 21 -42 24 -65 9 -52 34 -117 46 -117
4 0 15 -22 23 -50 8 -27 26 -68 40 -92 14 -24 28 -63 32 -88 4 -25 22 -73 41
-108 18 -35 33 -73 33 -85 0 -12 19 -39 45 -62 37 -35 47 -53 61 -106 9 -35
22 -71 30 -80 8 -8 23 -42 34 -74 11 -32 26 -66 34 -74 7 -9 21 -41 31 -71 10
-30 22 -60 27 -67 5 -6 17 -41 28 -78 10 -37 30 -85 43 -108 14 -23 31 -62 38
-85 7 -24 27 -58 45 -75 34 -31 43 -49 63 -125 7 -24 21 -52 31 -62 10 -10 24
-38 30 -62 17 -63 35 -86 75 -94 45 -8 61 5 79 65 7 26 25 64 40 85 14 21 26
46 26 55 0 26 46 114 72 138 14 12 30 41 37 65 7 24 21 57 31 73 18 28 48 107
102 260 12 33 29 70 38 82 9 12 23 44 30 70 7 26 21 57 31 68 10 11 23 43 30
70 16 66 25 83 70 127 21 20 40 51 44 70 4 18 20 56 35 83 15 28 31 70 35 95
4 25 20 68 35 95 15 28 31 64 34 81 4 17 18 46 31 64 13 18 29 58 35 89 6 31
19 67 29 81 10 14 25 46 34 72 9 28 30 60 50 78 26 22 45 57 75 133 22 56 44
116 48 132 4 17 22 58 41 93 18 35 33 72 33 81 0 10 9 30 21 45 12 15 28 57
36 93 9 36 28 86 44 111 16 25 29 55 29 66 0 10 17 36 39 56 48 46 59 66 71
131 5 28 18 63 28 77 11 15 27 52 37 82 10 30 24 63 32 72 8 9 25 51 38 93 13
42 28 82 33 88 6 7 17 35 25 62 8 28 26 67 40 88 14 21 29 52 32 69 4 17 21
43 39 58 23 20 39 50 56 102 13 40 32 85 42 100 10 15 26 51 35 80 8 29 24 63
34 76 10 13 21 40 25 61 9 56 25 104 40 122 8 8 23 41 34 73 10 31 28 68 39
82 10 13 25 48 31 77 9 37 23 64 51 92 24 25 46 63 59 99 11 33 27 67 34 75 8
9 24 49 35 90 11 40 27 84 35 96 8 12 20 41 26 66 7 24 21 54 31 68 11 13 26
48 35 77 8 29 21 57 28 63 8 7 22 43 32 82 15 59 24 76 55 100 27 21 43 45 55
82 9 28 25 67 36 85 11 18 26 60 34 95 8 34 23 74 33 88 11 14 26 49 34 77 9
28 25 64 36 79 12 16 27 55 34 88 7 33 23 76 35 95 12 19 26 49 31 66 5 17 27
49 49 70 29 29 47 59 66 114 49 143 81 225 97 250 9 14 22 43 29 65 7 22 20
51 30 65 9 14 23 53 30 88 7 35 19 69 25 76 18 18 45 73 45 91 0 9 22 40 50
69 38 41 51 62 56 97 3 24 19 67 34 95 16 28 33 70 40 93 6 23 21 57 34 75 13
19 28 60 34 91 6 31 20 68 31 83 10 15 24 47 31 72 6 25 18 52 26 61 8 9 24
41 35 70 12 30 29 62 40 72 22 21 61 95 79 152 7 22 21 51 30 65 10 14 25 49
34 79 9 30 22 61 30 70 8 9 22 47 30 85 9 37 25 79 36 93 11 14 25 44 31 67 6
22 21 57 34 76 13 19 29 58 36 85 8 34 24 63 50 90 23 25 46 63 59 99 11 33
27 67 35 76 8 9 24 52 35 95 11 43 26 86 34 94 8 9 22 41 31 73 9 31 22 62 30
68 8 6 19 28 25 48 6 20 22 60 36 88 13 27 27 73 30 101 6 45 4 52 -17 67 -22
15 -345 16 -4234 16 -3366 0 -4215 -3 -4235 -13z"/>
<path d="M29633 30459 c-21 -6 -39 -21 -49 -42 -16 -30 -25 -44 -75 -118 -11
-16 -29 -54 -38 -82 -10 -29 -28 -68 -40 -87 -11 -19 -21 -42 -21 -51 0 -9
-10 -36 -23 -60 -13 -24 -31 -73 -41 -109 -10 -36 -27 -76 -37 -89 -10 -13
-24 -42 -30 -65 -6 -22 -21 -58 -35 -79 -13 -20 -30 -61 -36 -90 -8 -38 -23
-65 -53 -98 -23 -25 -48 -63 -55 -85 -7 -21 -23 -58 -36 -81 -14 -24 -30 -69
-36 -100 -6 -32 -20 -69 -30 -82 -10 -13 -25 -46 -33 -73 -8 -27 -23 -61 -34
-76 -11 -16 -23 -41 -27 -58 -4 -16 -15 -45 -24 -64 -10 -19 -28 -66 -40 -103
-17 -49 -32 -76 -57 -96 -21 -17 -42 -50 -58 -90 -13 -35 -29 -68 -34 -75 -5
-6 -17 -42 -26 -81 -9 -38 -27 -86 -40 -105 -13 -19 -28 -52 -33 -72 -6 -21
-20 -51 -31 -67 -11 -16 -28 -58 -36 -95 -8 -36 -26 -82 -39 -101 -14 -20 -27
-49 -31 -65 -4 -17 -22 -45 -42 -62 -42 -40 -57 -68 -71 -133 -6 -27 -23 -72
-37 -99 -14 -27 -25 -57 -25 -66 0 -10 -11 -33 -24 -52 -13 -19 -31 -59 -41
-89 -10 -30 -21 -58 -25 -64 -5 -5 -18 -43 -30 -82 -12 -40 -31 -84 -41 -97
-11 -14 -26 -44 -35 -68 -8 -24 -32 -61 -53 -83 -27 -29 -42 -58 -55 -105 -10
-36 -26 -79 -37 -96 -11 -18 -25 -52 -33 -77 -7 -25 -23 -59 -34 -75 -12 -16
-24 -49 -28 -73 -4 -24 -19 -66 -34 -94 -15 -27 -31 -63 -34 -80 -4 -16 -17
-46 -30 -65 -13 -19 -30 -57 -40 -85 -9 -27 -30 -68 -46 -90 -17 -22 -39 -60
-50 -85 -11 -25 -30 -62 -41 -83 -21 -39 -36 -79 -90 -235 -16 -46 -38 -95
-48 -108 -10 -13 -24 -46 -31 -73 -6 -27 -20 -57 -31 -67 -10 -9 -24 -43 -31
-78 -9 -51 -19 -68 -53 -102 -23 -22 -48 -58 -55 -80 -7 -21 -23 -57 -36 -80
-13 -23 -30 -73 -39 -112 -9 -39 -23 -76 -31 -83 -7 -6 -21 -34 -29 -62 -8
-28 -23 -62 -32 -76 -10 -14 -30 -60 -44 -101 -47 -135 -80 -201 -114 -231
-18 -16 -38 -44 -45 -61 -6 -18 -20 -53 -31 -78 -11 -25 -28 -76 -39 -114 -11
-38 -26 -76 -35 -86 -8 -9 -23 -41 -34 -71 -10 -30 -28 -70 -39 -89 -11 -19
-25 -60 -31 -90 -7 -30 -22 -71 -35 -90 -13 -19 -29 -52 -36 -72 -6 -21 -27
-51 -46 -67 -35 -28 -63 -85 -64 -129 0 -13 -11 -43 -25 -66 -14 -24 -31 -64
-39 -90 -8 -26 -21 -55 -29 -64 -8 -10 -29 -57 -47 -107 -17 -49 -40 -114 -50
-143 -11 -29 -28 -65 -38 -80 -11 -15 -25 -45 -32 -67 -7 -22 -28 -53 -47 -70
-25 -23 -38 -47 -53 -100 -11 -38 -28 -81 -39 -95 -10 -14 -26 -51 -34 -81 -9
-31 -26 -68 -37 -82 -12 -15 -25 -52 -30 -83 -5 -32 -20 -73 -34 -93 -13 -20
-30 -56 -36 -80 -6 -24 -21 -57 -32 -72 -27 -36 -32 -144 -8 -159 24 -15 30
-12 48 28 22 48 202 234 269 278 37 23 62 50 83 88 52 92 229 275 309 318 19
11 39 34 50 60 10 24 44 70 75 103 147 155 196 201 230 218 25 12 43 30 54 56
20 44 24 49 182 210 63 65 125 121 138 125 12 4 31 24 42 45 22 43 110 143
250 281 53 52 125 129 160 170 36 41 103 114 150 163 47 48 128 132 180 187
52 55 138 144 190 198 53 54 102 112 109 129 7 18 23 35 34 39 12 4 46 32 77
63 182 188 230 240 248 277 13 26 30 44 45 48 13 3 52 36 87 73 35 38 90 96
122 129 58 61 98 114 110 146 4 9 28 31 55 49 26 18 72 57 101 88 29 31 77 81
106 111 30 30 63 73 74 95 23 44 94 115 115 115 19 0 240 235 252 268 13 34
83 104 121 121 35 16 221 214 239 256 17 39 82 108 120 128 42 22 199 187 224
236 24 45 145 171 166 171 7 0 37 26 66 57 30 31 66 68 80 82 15 14 36 44 47
66 25 49 140 170 171 180 32 10 170 153 188 195 8 19 26 46 39 60 87 91 123
123 154 139 47 25 118 102 173 187 43 67 196 224 218 224 15 0 119 109 119
125 0 29 193 238 230 250 33 10 118 98 135 139 17 40 224 256 246 256 21 0
105 88 121 127 17 43 203 240 248 263 41 21 78 60 109 113 46 82 205 246 291
300 19 13 42 38 51 57 20 41 37 62 169 198 58 60 122 117 142 126 28 13 41 29
54 61 9 24 25 52 35 61 11 9 19 25 19 34 0 47 96 45 -2074 47 -1251 1 -2054
-2 -2073 -8z"/>
<path d="M37695 20963 c-27 -2 -103 -10 -169 -19 -99 -14 -126 -21 -162 -46
-79 -53 -87 -70 -81 -173 3 -52 13 -109 24 -135 17 -43 18 -189 23 -3520 l5
-3475 26 -55 c45 -93 72 -111 234 -151 22 -6 123 -11 225 -11 160 -1 197 2
275 22 50 12 100 29 112 36 21 13 22 16 7 56 -8 23 -19 84 -25 137 -6 53 -17
128 -25 166 -21 98 -33 376 -34 746 0 396 -15 365 162 350 109 -9 135 -15 187
-41 56 -29 142 -104 184 -161 38 -51 97 -161 157 -294 73 -161 82 -181 91
-195 5 -8 20 -37 34 -65 92 -183 137 -258 179 -302 12 -12 32 -33 45 -48 31
-34 136 -115 149 -115 5 0 15 -7 22 -15 7 -8 33 -21 59 -29 25 -8 59 -21 75
-29 16 -9 55 -19 85 -22 31 -3 93 -10 138 -16 114 -13 270 10 356 53 151 77
280 213 415 438 36 61 92 177 92 191 0 8 8 26 18 39 17 25 55 124 74 195 5 22
19 63 29 90 10 28 21 66 25 85 3 19 17 70 30 113 13 43 24 88 24 101 0 12 11
58 24 102 13 43 26 108 30 144 4 36 14 92 21 125 8 33 19 114 25 180 6 66 18
149 25 185 15 72 50 416 50 495 0 90 -24 173 -63 213 -33 36 -36 37 -108 37
-71 0 -74 -1 -111 -38 -31 -30 -44 -55 -65 -125 -15 -48 -29 -121 -33 -162 -3
-41 -13 -104 -21 -140 -8 -36 -19 -112 -25 -170 -6 -58 -17 -133 -25 -168 -8
-35 -19 -107 -25 -160 -6 -53 -19 -131 -29 -172 -10 -41 -22 -104 -25 -140 -4
-36 -13 -80 -21 -98 -7 -17 -18 -60 -24 -95 -12 -64 -32 -131 -95 -322 -17
-52 -59 -149 -76 -175 -5 -8 -17 -31 -27 -50 -48 -97 -117 -171 -201 -216
-107 -57 -258 -28 -324 63 -25 33 -39 54 -76 113 -18 27 -58 124 -65 155 -4
17 -16 50 -28 75 -20 44 -55 121 -77 170 -6 14 -24 43 -39 66 -15 22 -37 56
-49 75 -39 59 -55 78 -119 142 -92 90 -111 107 -121 107 -4 0 -26 12 -48 27
-58 39 -118 70 -164 84 -23 7 -41 16 -41 21 0 22 37 62 74 80 89 42 139 75
231 152 127 105 326 323 390 427 6 9 24 35 40 59 59 84 85 126 131 215 25 50
52 101 60 115 25 47 64 139 64 151 0 7 9 32 20 55 28 57 56 154 91 314 74 336
32 886 -87 1136 -13 28 -24 56 -24 61 0 13 -60 103 -106 160 -41 50 -150 123
-219 148 -33 12 -91 19 -175 22 -122 5 -127 4 -202 -26 -43 -18 -98 -45 -122
-61 -41 -28 -138 -122 -226 -220 -56 -62 -180 -242 -200 -290 -5 -14 -17 -36
-25 -50 -9 -14 -36 -66 -61 -117 -24 -51 -49 -95 -54 -98 -4 -3 -11 -18 -15
-35 -3 -16 -14 -39 -24 -52 -10 -13 -22 -34 -26 -48 -4 -14 -17 -47 -30 -75
-13 -27 -29 -65 -36 -83 -9 -25 -14 -30 -25 -21 -7 6 -16 25 -19 43 -10 52 14
1067 29 1276 9 107 20 326 26 485 5 160 16 346 24 415 8 69 20 206 26 305 6
99 17 223 25 275 8 52 19 156 25 230 6 74 17 160 25 190 8 30 19 101 25 158 6
56 18 121 26 143 24 70 19 110 -19 140 -40 32 -139 79 -237 112 -101 35 -383
67 -515 60z m1514 -3385 c76 -61 115 -255 114 -558 -1 -310 -39 -570 -113
-785 -30 -86 -116 -269 -149 -315 -10 -14 -35 -51 -56 -84 -32 -49 -191 -218
-251 -266 -37 -29 -118 -80 -127 -80 -6 0 -33 -11 -61 -24 -75 -36 -256 -61
-320 -45 -43 11 -50 16 -67 56 -10 25 -17 54 -14 66 2 12 9 110 15 218 6 107
17 224 25 260 8 35 20 100 26 144 6 44 22 115 35 158 13 43 24 88 24 100 1 12
8 40 16 62 9 22 21 65 28 95 7 30 23 73 34 95 12 22 22 47 22 55 0 8 11 38 25
65 13 28 25 56 25 63 0 13 52 122 102 212 17 30 39 71 50 90 10 19 32 53 49
75 16 22 41 56 54 75 53 75 62 86 109 134 27 28 63 60 80 73 42 30 145 81 176
87 51 9 120 -3 149 -26z"/>
<path d="M27755 20938 c-102 -6 -161 -15 -218 -33 -43 -14 -86 -25 -96 -25
-10 0 -31 -16 -46 -36 -31 -40 -33 -28 27 -209 l23 -70 0 -3250 0 -3250 -26
-95 c-15 -52 -34 -110 -42 -129 -17 -40 -10 -80 24 -142 50 -89 203 -163 373
-180 128 -12 376 4 461 31 33 10 78 21 100 25 65 10 73 15 79 43 7 35 32 291
46 467 6 77 17 174 25 215 8 41 19 111 25 155 6 44 19 112 29 150 11 39 22 98
26 133 3 34 13 81 21 105 8 23 19 78 25 122 5 44 16 100 24 125 8 25 20 79 26
120 6 41 19 95 29 120 9 25 20 65 24 90 4 25 15 68 25 95 10 28 25 77 34 110
8 33 19 74 25 90 6 17 18 50 25 75 8 25 20 59 25 75 6 17 18 50 26 75 8 25 22
68 31 95 9 28 24 66 34 85 10 19 22 50 26 69 4 19 18 54 31 79 13 25 24 52 24
61 0 9 12 34 25 56 14 22 25 47 25 56 0 9 9 27 21 40 11 13 28 40 36 59 14 32
16 33 23 15 5 -11 9 -243 10 -515 1 -597 14 -996 34 -1105 8 -44 18 -132 22
-195 3 -63 15 -140 25 -171 9 -31 20 -79 24 -105 9 -63 64 -263 80 -289 7 -11
18 -38 25 -60 7 -22 16 -45 21 -51 5 -6 15 -29 23 -52 18 -51 78 -135 188
-266 35 -41 144 -126 163 -126 6 0 22 -8 35 -17 14 -10 54 -26 90 -36 36 -10
81 -22 100 -27 45 -12 284 -12 330 0 19 5 69 17 110 28 41 10 86 25 100 34 14
9 36 19 49 23 22 7 56 27 129 77 58 40 269 251 306 306 48 73 136 182 145 182
7 0 73 -108 123 -202 29 -54 268 -308 290 -308 5 0 35 -19 69 -42 73 -52 140
-96 154 -102 10 -4 67 -23 153 -52 26 -8 67 -24 91 -35 28 -13 83 -23 155 -29
61 -6 156 -17 210 -26 107 -16 203 -13 336 11 41 7 99 16 129 20 30 3 73 14
95 24 23 11 56 22 74 26 30 6 109 42 215 96 20 11 46 27 56 37 11 9 35 28 56
42 20 14 55 40 78 58 23 18 53 40 65 50 38 27 102 91 177 176 39 44 78 86 88
95 10 9 28 32 38 51 25 44 48 83 126 213 34 57 66 122 71 144 9 38 58 113 74
113 4 0 15 -25 23 -55 9 -30 20 -57 25 -60 5 -3 14 -25 20 -48 16 -59 96 -219
138 -272 12 -15 22 -32 22 -37 0 -21 92 -130 199 -238 113 -112 131 -127 236
-192 28 -17 62 -39 77 -49 15 -11 33 -19 40 -19 7 0 40 -14 73 -30 33 -16 66
-30 73 -30 7 0 27 -7 44 -16 17 -9 70 -22 117 -30 47 -8 100 -19 116 -26 42
-18 466 -17 515 0 19 7 80 19 134 28 55 8 104 18 110 23 6 5 38 16 71 26 33 9
65 21 71 26 6 5 34 16 62 24 28 9 54 20 57 25 3 5 25 19 48 30 176 85 378 263
529 468 15 20 37 53 48 72 11 19 34 55 50 80 16 25 47 83 70 130 23 47 45 92
51 100 5 8 14 26 20 40 6 14 19 41 29 60 10 19 30 85 46 147 l28 112 -25 63
c-30 78 -66 101 -147 95 -60 -4 -94 -29 -124 -92 -11 -22 -26 -51 -33 -65 -8
-14 -28 -56 -46 -95 -18 -38 -51 -101 -73 -140 -23 -38 -47 -81 -54 -95 -6
-14 -26 -43 -42 -65 -17 -22 -43 -58 -57 -80 -35 -53 -236 -252 -296 -292 -94
-64 -191 -100 -357 -134 -72 -15 -272 -6 -328 15 -24 8 -66 18 -95 22 -45 5
-97 27 -228 94 -40 21 -189 169 -206 205 -8 17 -30 57 -50 90 -33 56 -53 105
-89 215 -9 25 -24 68 -34 95 -10 28 -22 73 -25 100 -4 28 -15 79 -26 115 -18
63 -27 143 -50 474 -9 120 -9 188 0 285 7 69 16 180 22 246 5 66 18 152 28
190 11 39 22 99 26 134 3 36 13 77 21 93 8 15 21 56 29 90 16 71 57 195 78
236 44 86 77 161 77 175 0 9 4 18 10 22 5 3 39 52 76 108 76 115 185 229 259
271 49 27 177 69 245 79 37 5 74 -1 175 -29 70 -19 178 -105 190 -151 3 -15
11 -33 17 -40 16 -20 128 -243 128 -256 0 -7 9 -31 20 -52 11 -22 27 -60 34
-85 28 -95 102 -175 171 -186 108 -16 157 16 201 130 l28 71 4 360 c5 438 -6
624 -40 691 -22 44 -97 114 -122 114 -6 0 -27 8 -46 19 -19 10 -87 29 -150 42
-146 30 -337 33 -485 6 -171 -31 -189 -35 -235 -50 -220 -74 -234 -79 -250
-92 -8 -7 -26 -16 -40 -20 -35 -10 -146 -73 -160 -90 -7 -8 -18 -15 -25 -15
-8 0 -27 -11 -43 -25 -17 -14 -34 -25 -38 -25 -5 0 -27 -14 -48 -30 -22 -17
-44 -30 -49 -30 -17 0 -52 -30 -256 -221 -126 -118 -167 -162 -264 -281 -12
-15 -32 -40 -44 -54 -13 -15 -23 -33 -23 -40 0 -7 -11 -26 -25 -42 -14 -17
-25 -34 -25 -40 0 -5 -8 -20 -18 -33 -48 -62 -182 -361 -182 -405 0 -9 -11
-48 -24 -87 -13 -40 -27 -101 -31 -137 -3 -36 -14 -96 -25 -135 -10 -38 -28
-162 -40 -275 -22 -222 -32 -272 -61 -308 -10 -13 -21 -40 -25 -61 -4 -20 -15
-56 -24 -81 -10 -25 -21 -69 -25 -99 -4 -30 -15 -78 -25 -106 -10 -28 -21 -76
-25 -106 -4 -30 -13 -70 -21 -89 -7 -19 -20 -65 -29 -103 -8 -37 -21 -77 -29
-90 -8 -12 -17 -37 -21 -55 -6 -31 -55 -140 -93 -207 -81 -144 -191 -279 -277
-340 -16 -11 -40 -29 -54 -41 -36 -29 -136 -84 -152 -84 -8 0 -34 -11 -59 -24
-25 -13 -68 -27 -95 -30 -28 -4 -100 -14 -162 -23 -110 -16 -115 -16 -240 6
-79 15 -143 32 -168 46 -22 13 -51 26 -65 30 -14 4 -32 14 -40 21 -8 8 -44 38
-80 68 -74 61 -147 141 -188 206 -49 78 -92 159 -92 172 0 8 -9 31 -21 53 -31
58 -49 190 -49 363 0 180 -1 178 109 155 127 -27 220 -27 348 -3 65 13 138 34
163 47 25 12 51 23 59 23 22 0 169 102 229 159 29 27 67 63 85 78 41 36 110
118 173 206 68 96 81 115 109 172 14 28 43 83 65 124 22 40 40 79 40 85 0 6
12 34 25 61 14 28 25 59 25 70 0 12 9 39 20 60 12 22 25 60 30 85 6 25 19 79
29 120 45 173 73 424 60 550 -12 131 -45 300 -68 350 -11 25 -21 51 -21 58 0
24 -102 192 -156 259 -67 82 -250 233 -282 233 -5 0 -20 9 -33 19 -14 10 -45
25 -69 32 -25 7 -55 19 -68 27 -12 8 -80 22 -151 31 -113 15 -145 15 -248 4
-196 -21 -331 -76 -508 -206 -17 -12 -46 -38 -65 -57 -63 -64 -275 -324 -293
-360 -10 -19 -28 -53 -42 -75 -13 -22 -34 -59 -45 -82 -11 -23 -24 -45 -29
-47 -11 -7 -60 -106 -82 -166 -9 -25 -29 -75 -43 -112 -15 -38 -38 -98 -52
-135 -14 -38 -32 -84 -40 -103 -7 -19 -13 -47 -14 -62 0 -15 -8 -49 -19 -75
-10 -26 -24 -78 -30 -115 -6 -36 -18 -81 -25 -100 -8 -18 -19 -78 -26 -133 -6
-55 -18 -125 -25 -155 -8 -30 -19 -113 -24 -185 -34 -441 -34 -450 -23 -591
28 -331 28 -345 -2 -407 -14 -31 -26 -61 -26 -67 0 -10 -47 -109 -95 -198 -54
-101 -173 -233 -257 -283 -88 -53 -155 -72 -263 -73 -97 -1 -101 0 -145 31
-25 17 -54 42 -66 55 -31 35 -71 109 -79 148 -4 19 -15 60 -25 90 -10 30 -21
91 -25 135 -4 44 -13 108 -21 141 -32 132 -34 648 -5 954 6 58 15 177 21 265
6 88 19 214 29 280 11 66 24 170 30 231 6 61 15 124 21 140 5 16 16 85 25 153
8 68 19 131 24 140 5 9 14 52 21 96 6 44 16 92 20 107 5 16 4 48 -4 82 -12 50
-23 66 -99 145 -70 72 -94 106 -128 178 -51 109 -124 184 -195 202 -25 7 -56
18 -67 26 -12 7 -53 18 -92 24 -38 5 -115 17 -170 27 l-101 17 -56 -27 c-89
-42 -178 -155 -262 -332 -13 -28 -29 -55 -35 -58 -6 -4 -11 -14 -11 -23 0 -15
-18 -57 -80 -188 -11 -22 -25 -58 -31 -80 -7 -22 -18 -49 -25 -60 -6 -11 -15
-36 -19 -55 -4 -19 -15 -49 -25 -67 -11 -18 -22 -49 -26 -70 -4 -21 -15 -54
-24 -73 -10 -19 -23 -59 -29 -89 -6 -30 -16 -60 -21 -66 -5 -6 -18 -44 -30
-85 -54 -187 -69 -238 -84 -275 -8 -22 -15 -50 -16 -62 0 -12 -9 -46 -20 -75
-10 -29 -26 -82 -34 -118 -17 -73 -38 -157 -71 -275 -35 -127 -55 -205 -70
-280 -8 -38 -17 -81 -21 -95 l-6 -25 -14 25 c-11 21 -13 135 -12 660 1 615 19
1622 32 1785 3 44 11 220 16 390 6 171 17 364 25 430 8 66 19 212 25 324 6
113 17 249 25 304 9 54 20 178 25 275 6 97 17 218 25 267 8 50 19 164 25 255
6 91 18 202 26 248 8 46 19 134 25 195 5 62 19 153 30 203 11 50 19 102 17
115 -4 29 -65 62 -148 79 -30 7 -71 19 -90 27 -35 15 -293 43 -380 41 -25 0
-108 -5 -185 -10z m5034 -3691 c13 -6 41 -33 63 -58 33 -40 40 -57 54 -135 14
-81 14 -106 -1 -289 -10 -113 -25 -226 -35 -260 -10 -33 -21 -80 -24 -105 -8
-52 -49 -185 -77 -248 -10 -23 -19 -48 -19 -55 0 -25 -116 -243 -165 -310 -62
-85 -147 -173 -189 -194 -17 -8 -38 -22 -47 -30 -9 -7 -54 -23 -100 -34 -165
-40 -279 -13 -296 70 -15 67 -9 272 10 356 9 44 24 118 32 165 16 90 38 185
62 260 8 25 22 77 33 115 10 39 25 84 34 100 9 17 16 36 16 43 0 7 11 34 25
60 14 26 25 54 26 62 0 8 18 47 39 85 22 39 48 88 58 110 11 22 27 46 36 54 9
7 16 20 16 27 0 7 27 44 59 82 55 64 135 122 186 135 41 10 181 6 204 -6z"/>
<path d="M11480 20594 c-360 -17 -503 -27 -555 -39 -33 -7 -114 -18 -180 -24
-66 -6 -142 -18 -170 -26 -27 -7 -84 -18 -125 -24 -41 -6 -111 -19 -154 -31
-44 -11 -87 -20 -98 -20 -10 0 -50 -11 -90 -24 -40 -14 -91 -27 -113 -31 -21
-4 -51 -13 -65 -20 -14 -7 -52 -18 -85 -24 -33 -7 -81 -21 -107 -32 -26 -10
-56 -19 -68 -19 -28 0 -174 -47 -236 -76 -28 -13 -57 -24 -65 -24 -8 0 -28 -8
-44 -19 -17 -10 -48 -24 -70 -31 -22 -7 -49 -18 -60 -25 -11 -6 -38 -18 -60
-25 -22 -7 -54 -21 -71 -31 -17 -11 -38 -19 -45 -19 -20 0 -207 -90 -316 -152
-26 -16 -66 -37 -88 -48 -22 -12 -58 -33 -81 -48 -22 -15 -56 -37 -75 -49
-227 -146 -518 -397 -634 -547 -16 -22 -48 -62 -70 -90 -43 -54 -93 -131 -117
-181 -8 -16 -19 -39 -25 -50 -36 -65 -62 -127 -69 -161 -4 -21 -15 -57 -25
-80 -18 -39 -31 -130 -45 -304 -8 -93 18 -284 44 -337 11 -21 23 -52 26 -70 4
-17 14 -37 22 -44 8 -7 22 -26 30 -43 52 -112 246 -303 379 -375 22 -12 47
-25 55 -30 101 -61 314 -120 386 -106 57 10 113 58 177 151 l62 89 -3 79 c-2
52 -9 93 -22 122 -11 23 -20 49 -20 56 0 7 -18 47 -40 88 -21 41 -60 116 -86
165 -25 50 -54 106 -65 125 -50 97 -61 129 -70 213 -14 118 3 330 31 409 11
32 20 63 20 70 0 7 11 35 24 63 13 27 29 61 35 75 72 151 181 283 351 425 84
69 119 94 213 151 26 16 63 39 81 50 18 12 49 27 69 33 19 7 40 18 47 26 6 7
23 16 38 19 15 4 45 15 67 25 78 36 151 63 210 78 33 8 65 19 71 24 6 4 42 15
80 23 38 8 83 20 99 26 17 6 69 18 117 26 47 7 99 19 115 25 15 6 82 17 148
25 66 7 156 20 200 28 44 8 172 19 285 25 113 6 262 16 331 22 248 22 947 -8
1134 -47 39 -8 110 -22 159 -30 48 -8 96 -18 105 -23 9 -5 43 -14 76 -21 33
-7 78 -20 100 -30 22 -10 58 -22 80 -26 22 -4 60 -18 84 -31 24 -12 52 -23 61
-23 10 0 28 -9 42 -19 13 -11 38 -23 54 -27 16 -4 40 -14 54 -23 14 -9 41 -24
60 -34 19 -10 55 -31 80 -47 25 -16 56 -35 70 -42 21 -11 95 -63 110 -78 3 -3
32 -25 64 -50 234 -178 504 -570 581 -844 8 -26 21 -63 29 -80 8 -17 20 -61
25 -98 6 -36 17 -83 25 -105 8 -22 17 -71 21 -109 5 -38 16 -98 27 -134 21
-72 44 -424 42 -655 -2 -309 -23 -700 -43 -800 -10 -55 -22 -143 -26 -195 -3
-52 -12 -122 -20 -155 -7 -33 -19 -96 -25 -140 -7 -44 -19 -96 -27 -115 -8
-19 -21 -71 -28 -116 -8 -44 -21 -96 -28 -115 -8 -19 -18 -56 -21 -84 -8 -57
-56 -201 -86 -260 -11 -21 -20 -46 -20 -55 0 -8 -8 -28 -18 -45 -10 -16 -22
-43 -26 -60 -4 -16 -18 -52 -32 -81 -13 -28 -24 -56 -24 -62 0 -9 -39 -94 -61
-132 -4 -8 -29 -53 -55 -100 -26 -47 -67 -111 -91 -143 -23 -31 -43 -59 -43
-62 0 -24 -193 -238 -298 -330 -117 -103 -337 -245 -380 -245 -7 0 -34 -11
-60 -25 -26 -14 -58 -25 -72 -25 -14 -1 -50 -10 -80 -20 -71 -26 -270 -43
-425 -38 -114 5 -123 7 -195 43 -88 43 -125 64 -163 89 -38 26 -85 52 -127 71
-19 9 -51 25 -71 35 -20 11 -43 20 -50 20 -20 0 -142 59 -151 73 -4 7 -8 1077
-8 2378 0 2348 0 2367 -20 2432 -13 42 -30 73 -46 86 -29 23 -118 51 -163 51
-57 0 -309 -40 -344 -55 -20 -8 -68 -20 -107 -26 -40 -6 -88 -18 -107 -26 -21
-8 -114 -21 -227 -29 -105 -8 -191 -16 -193 -17 -7 -7 19 -84 36 -107 34 -47
69 -169 93 -325 l23 -150 5 -2170 5 -2170 32 -65 c54 -112 126 -172 346 -288
34 -18 91 -39 126 -48 36 -8 70 -19 77 -25 6 -5 43 -16 80 -24 84 -17 207 -59
237 -80 12 -8 27 -15 35 -15 7 0 43 -14 80 -31 37 -17 85 -38 107 -48 22 -10
65 -30 95 -44 30 -14 87 -40 125 -57 39 -17 82 -38 97 -46 26 -14 47 -22 193
-74 33 -11 74 -27 90 -35 17 -7 102 -19 190 -25 280 -21 460 3 715 94 48 17
145 61 170 77 8 5 34 19 58 30 44 21 72 39 197 129 39 28 86 61 105 75 19 14
51 36 70 50 19 14 51 36 70 49 34 23 419 409 450 451 8 11 31 42 50 68 19 26
58 77 85 112 28 35 61 80 75 100 14 20 36 51 50 68 14 18 31 43 38 57 7 14 24
43 37 65 13 22 37 62 52 89 15 26 39 68 53 91 92 160 140 250 150 283 7 20 21
51 31 68 11 17 19 38 19 46 0 8 11 36 25 62 14 26 25 52 25 59 0 7 7 26 16 42
29 53 84 196 84 216 0 11 11 54 24 97 64 203 120 443 131 562 4 36 13 89 21
119 9 29 22 103 29 165 8 61 19 145 24 186 22 162 35 646 23 880 -6 124 -15
240 -21 258 -6 19 -15 89 -21 155 -6 67 -19 151 -30 187 -11 36 -26 97 -34
135 -29 138 -68 255 -127 381 -10 22 -19 45 -19 51 0 10 -40 99 -61 133 -5 8
-21 37 -36 64 -16 26 -40 69 -55 95 -15 25 -36 64 -48 86 -54 102 -71 126
-138 200 -20 22 -77 86 -126 143 -49 56 -125 131 -168 165 -44 34 -117 92
-161 128 -95 76 -180 131 -292 189 -22 12 -62 34 -90 50 -79 45 -191 100 -204
100 -7 0 -33 11 -59 25 -26 14 -53 25 -61 25 -8 0 -33 9 -55 19 -50 24 -147
59 -201 73 -22 5 -80 20 -130 33 -49 13 -110 27 -134 30 -24 4 -60 14 -80 22
-19 8 -81 19 -137 24 -56 5 -135 16 -175 25 -41 8 -139 19 -219 24 -173 11
-585 19 -690 14z"/>
<path d="M18585 19380 c-103 -29 -215 -68 -250 -87 -11 -6 -47 -24 -79 -40
-33 -15 -75 -44 -94 -63 -52 -53 -50 -58 115 -271 108 -140 158 -195 231 -255
41 -32 79 -64 85 -70 35 -30 256 -134 288 -134 13 0 70 -9 125 -20 80 -15 114
-17 158 -10 31 5 60 11 64 14 4 2 45 10 91 16 46 6 93 18 105 25 12 8 40 21
63 29 61 21 101 54 125 103 21 42 21 44 4 81 -10 20 -39 68 -64 106 -65 94
-90 136 -107 173 -37 82 -120 184 -215 267 -42 36 -220 114 -295 128 -156 29
-212 38 -230 37 -11 -1 -65 -14 -120 -29z"/>
<path d="M20770 18566 c-25 -7 -59 -20 -77 -29 -18 -10 -37 -17 -44 -17 -27 0
-178 -82 -193 -105 -19 -28 -12 -88 19 -174 37 -104 40 -204 40 -1327 l0
-1091 -32 -36 c-50 -57 -80 -117 -87 -174 -4 -28 -15 -75 -25 -105 -10 -29
-21 -80 -26 -113 -4 -33 -13 -75 -21 -93 -7 -19 -19 -64 -25 -100 -10 -61 -18
-93 -64 -234 -47 -146 -47 -146 -83 -209 -15 -25 -36 -61 -46 -80 -45 -81
-211 -263 -263 -289 -15 -8 -37 -22 -49 -32 -12 -11 -62 -25 -127 -37 -103
-19 -109 -19 -181 -2 -59 14 -85 27 -126 61 -28 23 -58 57 -67 74 -8 17 -21
38 -28 46 -27 31 -66 174 -76 279 -6 58 -15 124 -21 146 -7 25 -12 244 -15
579 -4 447 -2 563 11 675 9 75 20 197 26 271 5 74 16 162 24 195 8 33 17 94
21 135 4 41 15 100 25 130 9 30 23 77 29 103 7 27 18 59 26 70 8 12 23 50 33
85 19 60 19 64 2 133 -13 55 -25 79 -56 110 -21 21 -43 39 -48 39 -6 0 -33 11
-61 24 -118 57 -169 75 -228 81 -34 4 -102 13 -150 22 -173 30 -442 0 -502
-57 -33 -31 -33 -86 -1 -155 14 -28 30 -87 36 -131 6 -43 15 -101 20 -129 10
-55 13 -1436 4 -1472 -5 -16 -18 -26 -48 -34 -22 -5 -48 -12 -57 -15 -34 -10
-69 -78 -84 -163 -8 -45 -17 -86 -20 -91 -3 -5 -15 -58 -25 -117 -20 -112 -43
-206 -67 -283 -8 -25 -22 -76 -32 -115 -10 -38 -23 -80 -30 -92 -6 -13 -16
-49 -22 -80 -6 -32 -17 -70 -25 -84 -7 -15 -18 -49 -24 -75 -6 -27 -17 -55
-24 -64 -8 -8 -17 -26 -21 -40 -6 -22 -23 -62 -64 -150 -7 -14 -25 -47 -40
-75 -16 -27 -37 -66 -48 -85 -44 -82 -122 -167 -196 -212 -36 -23 -57 -28
-105 -28 -53 0 -65 4 -100 33 -66 54 -127 182 -156 327 -8 36 -20 99 -29 140
-28 135 -50 495 -43 710 11 334 26 551 46 660 10 58 21 138 25 178 3 40 13 98
21 129 8 31 19 88 24 127 6 39 19 98 29 131 11 33 22 83 26 110 7 58 48 202
74 260 10 22 22 56 26 75 4 19 15 51 25 70 10 19 22 72 28 117 12 101 0 167
-37 206 -30 33 -123 97 -140 97 -6 0 -37 11 -69 24 -31 13 -88 29 -126 35 -38
7 -78 16 -87 22 -10 5 -78 14 -151 19 -73 6 -189 17 -258 25 -69 8 -182 19
-251 25 -145 11 -169 18 -197 57 -31 45 -35 86 -22 257 12 145 11 169 -4 237
-21 95 -55 144 -111 160 -65 18 -238 3 -301 -27 -28 -13 -60 -24 -71 -24 -28
0 -183 -106 -217 -149 l-28 -36 6 -235 c3 -129 13 -309 23 -400 15 -140 18
-253 17 -745 -1 -517 -3 -601 -22 -770 -11 -104 -24 -230 -27 -280 -3 -49 -15
-128 -25 -175 -10 -47 -22 -112 -26 -145 -4 -33 -13 -77 -20 -99 -22 -62 -46
-246 -39 -295 10 -64 41 -91 105 -91 62 0 120 31 165 87 33 41 95 157 95 176
0 7 8 28 19 47 10 20 24 62 31 95 7 33 18 72 26 86 7 15 18 57 24 95 6 38 17
89 25 114 8 25 21 95 29 155 8 61 20 123 26 139 6 17 16 80 21 140 6 61 17
139 24 174 8 34 20 115 25 180 6 64 18 146 26 181 8 36 19 123 25 195 16 202
48 313 97 336 39 18 147 23 236 12 63 -8 83 -15 106 -37 49 -47 55 -75 41
-184 -6 -53 -18 -220 -26 -371 -8 -151 -20 -324 -27 -385 -18 -155 -15 -547 5
-725 9 -80 19 -188 22 -240 4 -52 11 -115 16 -140 5 -25 18 -97 29 -160 10
-63 25 -131 33 -150 8 -19 18 -55 22 -80 8 -54 56 -200 85 -255 11 -21 20 -45
20 -53 0 -7 9 -30 20 -50 11 -20 27 -53 35 -72 8 -19 27 -54 43 -76 133 -201
140 -211 196 -263 77 -72 89 -80 110 -87 11 -3 29 -14 40 -23 22 -20 132 -59
206 -72 30 -6 114 -9 185 -6 106 3 139 8 177 25 26 12 52 22 58 22 25 0 138
73 190 122 55 52 116 124 155 182 11 16 29 41 40 56 49 66 98 147 108 175 6
16 18 41 29 54 10 13 18 30 18 37 0 8 11 35 25 61 39 77 75 160 75 178 0 8 11
41 24 73 13 31 27 76 31 99 8 48 62 140 75 127 5 -5 14 -40 20 -79 6 -38 19
-83 29 -100 10 -16 21 -43 25 -58 6 -26 33 -76 91 -170 11 -18 29 -42 40 -53
11 -11 34 -35 50 -54 78 -89 210 -184 325 -235 19 -8 51 -24 70 -34 20 -11 58
-22 85 -27 27 -4 65 -14 85 -22 43 -18 226 -21 285 -4 22 6 81 16 130 22 53 7
111 21 140 35 28 12 75 35 105 49 30 14 59 26 64 26 4 0 44 30 89 68 44 37 93
76 108 87 23 16 106 112 216 249 8 10 22 33 30 50 65 137 100 166 115 96 4
-19 7 -681 7 -1470 0 -1658 -5 -1555 86 -1615 147 -96 720 -96 920 1 114 55
134 80 136 167 2 53 -13 97 -31 97 -12 0 -103 68 -111 84 -4 6 -10 35 -14 65
-4 30 -15 78 -25 106 -10 28 -21 80 -25 116 -4 35 -15 100 -26 144 -10 44 -23
151 -29 237 -6 87 -16 179 -22 205 -15 68 -23 1830 -8 1996 11 127 22 288 40
562 5 88 16 196 24 240 8 44 17 132 21 195 4 63 15 153 26 200 10 47 23 124
29 173 6 48 15 99 21 114 5 15 17 73 24 130 8 56 21 119 29 140 8 21 20 69 26
108 6 38 15 75 20 81 5 5 17 41 25 79 9 38 22 80 29 94 7 14 18 46 24 71 6 25
20 63 32 85 11 21 20 46 20 55 0 8 11 33 25 55 13 22 25 47 25 55 1 8 19 44
40 80 22 36 48 81 59 100 30 55 138 158 195 186 77 38 157 42 229 12 69 -29
152 -106 179 -165 10 -23 23 -45 28 -48 5 -3 17 -31 26 -61 9 -30 22 -67 29
-81 8 -15 17 -52 20 -82 4 -31 15 -99 25 -151 34 -168 43 -456 37 -1095 -6
-599 -16 -813 -41 -914 -8 -31 -17 -92 -21 -136 -4 -44 -15 -103 -25 -132 -10
-28 -21 -71 -25 -95 -8 -43 -60 -184 -76 -204 -5 -6 -15 -28 -23 -50 -46 -131
-165 -222 -301 -231 -104 -7 -156 23 -246 142 -105 139 -111 145 -153 156 -22
6 -63 8 -91 4 -43 -5 -60 -14 -108 -58 -50 -45 -60 -60 -72 -110 -19 -74 -19
-106 1 -203 17 -83 56 -156 111 -205 41 -37 107 -79 124 -79 7 0 38 -11 66
-25 53 -24 83 -31 268 -61 104 -17 250 -13 304 8 14 5 52 14 83 19 32 5 79 21
104 34 26 14 53 25 61 25 8 0 26 8 41 18 15 11 50 34 78 53 69 46 250 215 283
263 14 21 37 56 51 76 14 21 41 62 61 92 40 58 89 148 89 162 0 8 9 30 76 171
12 28 26 68 29 90 4 21 13 51 20 66 8 14 19 57 26 95 6 38 18 81 26 96 7 16
20 76 28 135 8 60 21 140 29 178 16 76 34 336 42 620 7 200 -25 683 -50 784
-8 31 -17 79 -21 106 -8 65 -52 258 -71 315 -9 25 -24 72 -34 105 -36 116 -62
188 -80 215 -5 8 -16 31 -25 50 -8 19 -22 46 -30 60 -15 27 -34 64 -60 118
-15 32 -55 91 -83 122 -7 8 -39 50 -72 94 -134 178 -277 269 -484 306 -136 25
-195 25 -317 1 -131 -25 -232 -76 -320 -161 -48 -47 -181 -209 -197 -240 -8
-14 -26 -47 -42 -75 -46 -80 -100 -188 -100 -200 0 -7 -10 -32 -23 -56 -13
-24 -29 -66 -36 -94 -7 -27 -17 -55 -22 -61 -4 -6 -15 -44 -24 -84 -9 -40 -20
-79 -25 -85 -6 -7 -15 -39 -21 -71 -10 -54 -48 -184 -71 -244 -9 -24 -10 -24
-21 -5 -9 15 -14 236 -18 815 l-6 795 -24 90 c-34 127 -54 156 -168 242 -49
38 -195 53 -281 29z"/>
<path d="M25930 17944 c-14 -2 -70 -11 -125 -20 -174 -27 -200 -33 -335 -80
-25 -9 -65 -23 -90 -31 -25 -9 -52 -22 -60 -28 -8 -7 -26 -16 -40 -20 -35 -10
-146 -73 -160 -90 -7 -8 -18 -15 -25 -15 -8 0 -27 -11 -43 -25 -17 -14 -34
-25 -38 -25 -5 0 -27 -14 -48 -30 -22 -17 -44 -30 -49 -30 -12 0 -101 -74
-192 -160 -38 -37 -97 -91 -129 -121 -53 -48 -147 -155 -194 -218 -9 -13 -29
-37 -43 -55 -15 -17 -29 -41 -33 -52 -4 -12 -15 -29 -26 -39 -11 -10 -20 -24
-20 -30 0 -7 -8 -23 -18 -36 -46 -59 -182 -362 -182 -404 0 -8 -11 -47 -24
-87 -13 -40 -26 -102 -30 -138 -4 -36 -16 -99 -26 -140 -36 -144 -64 -446 -64
-680 1 -228 28 -503 60 -605 9 -27 22 -84 29 -125 13 -73 33 -134 81 -236 13
-28 24 -58 24 -66 0 -17 59 -134 100 -198 15 -25 45 -73 65 -107 44 -73 224
-265 306 -328 33 -25 62 -45 65 -45 3 0 27 -14 52 -32 26 -17 59 -40 74 -50
15 -10 33 -18 40 -18 7 0 40 -14 73 -30 33 -16 66 -30 73 -30 7 0 27 -7 44
-16 17 -9 70 -22 117 -30 47 -8 100 -19 116 -26 47 -20 463 -17 535 4 30 9 80
20 110 23 55 7 235 61 256 77 6 4 34 15 62 23 28 9 54 20 57 25 3 5 25 19 48
30 42 20 87 46 144 85 115 77 308 270 385 384 72 107 133 209 168 281 23 47
46 92 51 100 5 8 14 26 20 40 6 14 22 48 34 75 31 65 59 178 59 235 0 25 -10
66 -22 93 -26 59 -71 82 -145 74 -73 -7 -104 -47 -203 -261 -20 -44 -50 -102
-67 -130 -17 -28 -39 -67 -49 -86 -10 -19 -32 -53 -49 -75 -16 -22 -41 -58
-56 -80 -33 -51 -236 -252 -295 -292 -96 -65 -193 -101 -363 -135 -66 -13
-269 -4 -320 15 -22 8 -65 18 -95 21 -49 7 -113 34 -232 98 -44 24 -187 166
-205 203 -8 17 -30 57 -50 90 -33 56 -53 105 -89 215 -9 25 -24 68 -34 95 -10
28 -24 83 -30 124 -6 40 -15 82 -21 94 -13 22 -44 333 -54 532 -4 79 -2 172 5
235 6 58 15 159 20 225 5 66 18 156 29 200 11 44 24 109 29 145 6 36 17 85 26
110 8 25 30 92 47 150 18 58 40 121 50 140 22 42 75 159 82 180 13 42 168 253
227 311 81 79 139 113 245 144 136 39 151 39 290 0 43 -12 75 -30 115 -65 50
-43 66 -67 137 -212 45 -90 85 -174 88 -188 4 -14 13 -34 20 -46 8 -12 20 -41
27 -65 32 -103 104 -184 173 -195 64 -9 119 3 148 34 14 15 38 59 54 97 l27
70 4 375 c4 439 -6 608 -40 677 -22 43 -97 113 -122 113 -6 0 -27 8 -46 19
-79 41 -403 83 -510 65z"/>
</g>
</svg>
